<?xml version="1.0" encoding="iso-8859-1"?>
<!-- Generator: Adobe Illustrator 18.1.1, SVG Export Plug-In . SVG Version: 6.00 Build 0)  -->
<svg version="1.1" id="Capa_1" xmlns="http://www.w3.org/2000/svg" xmlns:xlink="http://www.w3.org/1999/xlink" x="0px" y="0px"
	 viewBox="0 0 26.3 26.3" style="enable-background:new 0 0 26.3 26.3;" xml:space="preserve">
<g>
	<path style="fill:#010002;" d="M19.255,8.223l0.822-1.487l-1.564,0.732l-0.306-1.836l-0.855,1.709L16.06,5.96l0.226,1.815
		l0.085,0.086L0.042,23.622L2.721,26.3l16.358-15.793l1.5,0.292l-1.265-1.356l1.805-0.936C21.119,8.507,19.255,8.223,19.255,8.223z
		 M2.721,24.96l-1.339-1.338L13.959,11.61l1.338,1.339L2.721,24.96z M19.306,10.091l-0.396-0.077l-2.161-2.161l-0.071-0.575
		l0.788,0.843l0.523-1.048l0.175,1.055l0.849-0.396l-0.464,0.84l1.135,0.171L18.58,9.316L19.306,10.091z M22.279,1.475l0.362-0.262
		L23,1.475l-0.136-0.424l0.361-0.261h-0.447l-0.137-0.425L22.503,0.79h-0.446l0.361,0.261L22.279,1.475z M22.292,4.285l0.58,0.42
		l-0.222,0.68l0.58-0.421l0.578,0.421l-0.221-0.68l0.577-0.42H23.45l-0.22-0.68l-0.222,0.68H22.292z M23.612,8.891L23.23,8.115
		l-0.384,0.776L21.99,9.015l0.619,0.603l-0.145,0.853l0.766-0.403l0.764,0.403l-0.146-0.853l0.62-0.603L23.612,8.891z M14.807,4.37
		l0.425-0.224l0.427,0.224l-0.081-0.474l0.345-0.336l-0.478-0.069L15.232,3.06L15.02,3.491L14.544,3.56l0.345,0.336L14.807,4.37z
		 M18.443,1.84l0.598-0.314l0.598,0.314l-0.116-0.665l0.485-0.471l-0.667-0.098L19.041,0l-0.3,0.606l-0.667,0.098l0.484,0.471
		L18.443,1.84z M17.747,4.719l0.327-0.171l0.324,0.171l-0.06-0.364l0.264-0.256l-0.366-0.054l-0.162-0.33l-0.163,0.33l-0.364,0.054
		l0.262,0.256L17.747,4.719z M25.044,5.134c0.087,0,0.158,0.071,0.158,0.158S25.131,5.45,25.044,5.45s-0.158-0.071-0.158-0.158
		S24.957,5.134,25.044,5.134z M25.88,7.053c0.157,0,0.285,0.128,0.285,0.285s-0.128,0.285-0.285,0.285s-0.285-0.128-0.285-0.285
		S25.723,7.053,25.88,7.053z M25.927,0.759c0.183,0,0.331,0.148,0.331,0.331s-0.148,0.331-0.331,0.331s-0.331-0.148-0.331-0.331
		S25.744,0.759,25.927,0.759z M20.96,2.573c0.134,0,0.243,0.109,0.243,0.243s-0.109,0.243-0.243,0.243s-0.243-0.109-0.243-0.243
		S20.826,2.573,20.96,2.573z M20.925,5.918c0.253,0,0.458,0.205,0.458,0.458s-0.205,0.458-0.458,0.458s-0.458-0.205-0.458-0.458
		S20.672,5.918,20.925,5.918z"/>
</g>
<g>
</g>
<g>
</g>
<g>
</g>
<g>
</g>
<g>
</g>
<g>
</g>
<g>
</g>
<g>
</g>
<g>
</g>
<g>
</g>
<g>
</g>
<g>
</g>
<g>
</g>
<g>
</g>
<g>
</g>
</svg>
